solid OpenSCAD_Model
  facet normal -1 0 0
    outer loop
      vertex -10 -18 -0.5
      vertex -10 -18 10.5
      vertex -10 -13.5 -0.5
    endloop
  endfacet
  facet normal -1 0 0
    outer loop
      vertex -10 -7.5 2
      vertex -10 -18 10.5
      vertex -10 18 10.5
    endloop
  endfacet
  facet normal -1 0 0
    outer loop
      vertex -10 13.5 -0.5
      vertex -10 18 10.5
      vertex -10 18 -0.5
    endloop
  endfacet
  facet normal -1 0 0
    outer loop
      vertex -10 13.5 2
      vertex -10 18 10.5
      vertex -10 13.5 -0.5
    endloop
  endfacet
  facet normal -1 0 0
    outer loop
      vertex -10 7.5 2
      vertex -10 18 10.5
      vertex -10 13.5 2
    endloop
  endfacet
  facet normal -1 0 0
    outer loop
      vertex -10 -7.5 2
      vertex -10 18 10.5
      vertex -10 7.5 2
    endloop
  endfacet
  facet normal -1 0 0
    outer loop
      vertex -10 -7.5 2
      vertex -10 7.5 2
      vertex -10 -7.5 -0.5
    endloop
  endfacet
  facet normal -1 0 0
    outer loop
      vertex -10 -13.5 2
      vertex -10 -18 10.5
      vertex -10 -7.5 2
    endloop
  endfacet
  facet normal -1 0 0
    outer loop
      vertex -10 -13.5 -0.5
      vertex -10 -18 10.5
      vertex -10 -13.5 2
    endloop
  endfacet
  facet normal -1 0 0
    outer loop
      vertex -10 7.5 -0.5
      vertex -10 -7.5 -0.5
      vertex -10 7.5 2
    endloop
  endfacet
  facet normal 0 -1 0
    outer loop
      vertex -3.25281 -18 5.94702
      vertex -10 -18 -0.5
      vertex 10 -18 -0.5
    endloop
  endfacet
  facet normal 0 -1 0
    outer loop
      vertex -3.25281 -18 5.94702
      vertex -7.80579 -18 10.5
      vertex -10 -18 10.5
    endloop
  endfacet
  facet normal 0 -1 0
    outer loop
      vertex 10 -18 10.5
      vertex 7.80579 -18 10.5
      vertex 10 -18 -0.5
    endloop
  endfacet
  facet normal 0 -1 0
    outer loop
      vertex 7.80579 -18 10.5
      vertex 3.25281 -18 5.94702
      vertex 10 -18 -0.5
    endloop
  endfacet
  facet normal 0 -1 0
    outer loop
      vertex -10 -18 10.5
      vertex -10 -18 -0.5
      vertex -3.25281 -18 5.94702
    endloop
  endfacet
  facet normal 0 -1 0
    outer loop
      vertex 3.25281 -18 5.94702
      vertex -3.25281 -18 5.94702
      vertex 10 -18 -0.5
    endloop
  endfacet
  facet normal 0 0 -1
    outer loop
      vertex -10 -18 -0.5
      vertex -10 -13.5 -0.5
      vertex 10 -18 -0.5
    endloop
  endfacet
  facet normal 0 0 -1
    outer loop
      vertex 10 -18 -0.5
      vertex -10 -13.5 -0.5
      vertex 10 -13.5 -0.5
    endloop
  endfacet
  facet normal 0 1 0
    outer loop
      vertex 10 -13.5 2
      vertex 10 -13.5 -0.5
      vertex -10 -13.5 2
    endloop
  endfacet
  facet normal 0 1 0
    outer loop
      vertex -10 -13.5 2
      vertex 10 -13.5 -0.5
      vertex -10 -13.5 -0.5
    endloop
  endfacet
  facet normal 0 0 -1
    outer loop
      vertex 10 -7.5 2
      vertex 10 -13.5 2
      vertex -10 -7.5 2
    endloop
  endfacet
  facet normal 0 0 -1
    outer loop
      vertex -10 -7.5 2
      vertex 10 -13.5 2
      vertex -10 -13.5 2
    endloop
  endfacet
  facet normal 0 -1 0
    outer loop
      vertex 10 -7.5 -0.5
      vertex 10 -7.5 2
      vertex -10 -7.5 2
    endloop
  endfacet
  facet normal 0 -1 0
    outer loop
      vertex -10 -7.5 -0.5
      vertex 10 -7.5 -0.5
      vertex -10 -7.5 2
    endloop
  endfacet
  facet normal 0 0 -1
    outer loop
      vertex -4.0625 1.6238 -0.5
      vertex -10 7.5 -0.5
      vertex 10 -7.5 -0.5
    endloop
  endfacet
  facet normal 0 0 -1
    outer loop
      vertex 4.0625 1.6238 -0.5
      vertex -10 7.5 -0.5
      vertex 10 7.5 -0.5
    endloop
  endfacet
  facet normal 0 0 -1
    outer loop
      vertex -10 -7.5 -0.5
      vertex -10 7.5 -0.5
      vertex -6.875 0 -0.5
    endloop
  endfacet
  facet normal 0 0 -1
    outer loop
      vertex -10 -7.5 -0.5
      vertex -6.875 0 -0.5
      vertex -6.6238 -0.9375 -0.5
    endloop
  endfacet
  facet normal 0 0 -1
    outer loop
      vertex -10 -7.5 -0.5
      vertex -6.6238 -0.9375 -0.5
      vertex -5.9375 -1.6238 -0.5
    endloop
  endfacet
  facet normal 0 0 -1
    outer loop
      vertex -10 -7.5 -0.5
      vertex -5.9375 -1.6238 -0.5
      vertex 10 -7.5 -0.5
    endloop
  endfacet
  facet normal 0 0 -1
    outer loop
      vertex -5.9375 -1.6238 -0.5
      vertex -5 -1.875 -0.5
      vertex 10 -7.5 -0.5
    endloop
  endfacet
  facet normal 0 0 -1
    outer loop
      vertex -3.3762 -0.9375 -0.5
      vertex 10 -7.5 -0.5
      vertex -4.0625 -1.6238 -0.5
    endloop
  endfacet
  facet normal 0 0 -1
    outer loop
      vertex 5 -1.875 -0.5
      vertex 10 -7.5 -0.5
      vertex 4.0625 -1.6238 -0.5
    endloop
  endfacet
  facet normal 0 0 -1
    outer loop
      vertex -5 1.875 -0.5
      vertex -10 7.5 -0.5
      vertex -4.0625 1.6238 -0.5
    endloop
  endfacet
  facet normal 0 0 -1
    outer loop
      vertex -5.9375 1.6238 -0.5
      vertex -10 7.5 -0.5
      vertex -5 1.875 -0.5
    endloop
  endfacet
  facet normal 0 0 -1
    outer loop
      vertex -3.3762 -0.9375 -0.5
      vertex -3.125 0 -0.5
      vertex 10 -7.5 -0.5
    endloop
  endfacet
  facet normal 0 0 -1
    outer loop
      vertex -3.125 0 -0.5
      vertex -3.3762 0.9375 -0.5
      vertex 10 -7.5 -0.5
    endloop
  endfacet
  facet normal 0 0 -1
    outer loop
      vertex -3.3762 0.9375 -0.5
      vertex -4.0625 1.6238 -0.5
      vertex 10 -7.5 -0.5
    endloop
  endfacet
  facet normal 0 0 -1
    outer loop
      vertex -6.6238 0.9375 -0.5
      vertex -10 7.5 -0.5
      vertex -5.9375 1.6238 -0.5
    endloop
  endfacet
  facet normal 0 0 -1
    outer loop
      vertex -6.875 0 -0.5
      vertex -10 7.5 -0.5
      vertex -6.6238 0.9375 -0.5
    endloop
  endfacet
  facet normal 0 0 -1
    outer loop
      vertex 3.3762 -0.9375 -0.5
      vertex -10 7.5 -0.5
      vertex 3.125 0 -0.5
    endloop
  endfacet
  facet normal 0 0 -1
    outer loop
      vertex 4.0625 -1.6238 -0.5
      vertex -10 7.5 -0.5
      vertex 3.3762 -0.9375 -0.5
    endloop
  endfacet
  facet normal 0 0 -1
    outer loop
      vertex 10 -7.5 -0.5
      vertex -10 7.5 -0.5
      vertex 4.0625 -1.6238 -0.5
    endloop
  endfacet
  facet normal 0 0 -1
    outer loop
      vertex 6.6238 0.9375 -0.5
      vertex 10 7.5 -0.5
      vertex 6.875 0 -0.5
    endloop
  endfacet
  facet normal 0 0 -1
    outer loop
      vertex 10 -7.5 -0.5
      vertex 5 -1.875 -0.5
      vertex 5.9375 -1.6238 -0.5
    endloop
  endfacet
  facet normal 0 0 -1
    outer loop
      vertex 10 -7.5 -0.5
      vertex 5.9375 -1.6238 -0.5
      vertex 6.6238 -0.9375 -0.5
    endloop
  endfacet
  facet normal 0 0 -1
    outer loop
      vertex 10 -7.5 -0.5
      vertex 6.6238 -0.9375 -0.5
      vertex 10 7.5 -0.5
    endloop
  endfacet
  facet normal 0 0 -1
    outer loop
      vertex 6.6238 -0.9375 -0.5
      vertex 6.875 0 -0.5
      vertex 10 7.5 -0.5
    endloop
  endfacet
  facet normal 0 0 -1
    outer loop
      vertex 5.9375 1.6238 -0.5
      vertex 10 7.5 -0.5
      vertex 6.6238 0.9375 -0.5
    endloop
  endfacet
  facet normal 0 0 -1
    outer loop
      vertex 4.0625 1.6238 -0.5
      vertex 10 7.5 -0.5
      vertex 5 1.875 -0.5
    endloop
  endfacet
  facet normal 0 0 -1
    outer loop
      vertex 5.9375 1.6238 -0.5
      vertex 5 1.875 -0.5
      vertex 10 7.5 -0.5
    endloop
  endfacet
  facet normal 0 0 -1
    outer loop
      vertex 3.3762 0.9375 -0.5
      vertex -10 7.5 -0.5
      vertex 4.0625 1.6238 -0.5
    endloop
  endfacet
  facet normal 0 0 -1
    outer loop
      vertex 3.125 0 -0.5
      vertex -10 7.5 -0.5
      vertex 3.3762 0.9375 -0.5
    endloop
  endfacet
  facet normal 0 0 -1
    outer loop
      vertex -4.0625 -1.6238 -0.5
      vertex 10 -7.5 -0.5
      vertex -5 -1.875 -0.5
    endloop
  endfacet
  facet normal 0 1 0
    outer loop
      vertex 10 7.5 2
      vertex 10 7.5 -0.5
      vertex -10 7.5 2
    endloop
  endfacet
  facet normal 0 1 0
    outer loop
      vertex -10 7.5 2
      vertex 10 7.5 -0.5
      vertex -10 7.5 -0.5
    endloop
  endfacet
  facet normal 0 0 -1
    outer loop
      vertex 10 13.5 2
      vertex 10 7.5 2
      vertex -10 13.5 2
    endloop
  endfacet
  facet normal 0 0 -1
    outer loop
      vertex -10 13.5 2
      vertex 10 7.5 2
      vertex -10 7.5 2
    endloop
  endfacet
  facet normal 0 -1 0
    outer loop
      vertex 10 13.5 -0.5
      vertex 10 13.5 2
      vertex -10 13.5 2
    endloop
  endfacet
  facet normal 0 -1 0
    outer loop
      vertex -10 13.5 -0.5
      vertex 10 13.5 -0.5
      vertex -10 13.5 2
    endloop
  endfacet
  facet normal 0 0 -1
    outer loop
      vertex -10 13.5 -0.5
      vertex -10 18 -0.5
      vertex 10 13.5 -0.5
    endloop
  endfacet
  facet normal 0 0 -1
    outer loop
      vertex 10 13.5 -0.5
      vertex -10 18 -0.5
      vertex 10 18 -0.5
    endloop
  endfacet
  facet normal 0 1 0
    outer loop
      vertex 3.25281 18 5.94702
      vertex 10 18 -0.5
      vertex -3.25281 18 5.94702
    endloop
  endfacet
  facet normal 0 1 0
    outer loop
      vertex -10 18 -0.5
      vertex -10 18 10.5
      vertex -3.25281 18 5.94702
    endloop
  endfacet
  facet normal 0 1 0
    outer loop
      vertex -10 18 -0.5
      vertex -3.25281 18 5.94702
      vertex 10 18 -0.5
    endloop
  endfacet
  facet normal 0 1 0
    outer loop
      vertex 10 18 -0.5
      vertex 3.25281 18 5.94702
      vertex 7.80579 18 10.5
    endloop
  endfacet
  facet normal 0 1 0
    outer loop
      vertex 10 18 -0.5
      vertex 7.80579 18 10.5
      vertex 10 18 10.5
    endloop
  endfacet
  facet normal 0 1 0
    outer loop
      vertex -3.25281 18 5.94702
      vertex -10 18 10.5
      vertex -7.80579 18 10.5
    endloop
  endfacet
  facet normal 0 0 1
    outer loop
      vertex -10 18 10.5
      vertex -10 -18 10.5
      vertex -7.80579 -18 10.5
    endloop
  endfacet
  facet normal 0 0 1
    outer loop
      vertex -8.1 0 10.5
      vertex -10 18 10.5
      vertex -7.80579 -18 10.5
    endloop
  endfacet
  facet normal 0 0 1
    outer loop
      vertex -7.80579 -1.25762 10.5
      vertex -7.99437 -0.802339 10.5
      vertex -7.80579 -18 10.5
    endloop
  endfacet
  facet normal 0 0 1
    outer loop
      vertex -7.99437 -0.802339 10.5
      vertex -8.1 0 10.5
      vertex -7.80579 -18 10.5
    endloop
  endfacet
  facet normal 0 0 1
    outer loop
      vertex -7.80579 1.25762 10.5
      vertex -10 18 10.5
      vertex -7.99437 0.802339 10.5
    endloop
  endfacet
  facet normal 0 0 1
    outer loop
      vertex -7.80579 18 10.5
      vertex -10 18 10.5
      vertex -7.80579 1.25762 10.5
    endloop
  endfacet
  facet normal 0 0 1
    outer loop
      vertex -8.1 0 10.5
      vertex -7.99437 0.802339 10.5
      vertex -10 18 10.5
    endloop
  endfacet
  facet normal 0.707107 2.15888e-016 0.707107
    outer loop
      vertex -7.80579 -18 10.5
      vertex -3.25281 -18 5.94702
      vertex -3.25281 -2.53337 5.94702
    endloop
  endfacet
  facet normal 0.707107 2.15888e-016 0.707107
    outer loop
      vertex -4.19766 -2.99437 6.89188
      vertex -7.80579 -18 10.5
      vertex -3.45 -2.68468 6.14421
    endloop
  endfacet
  facet normal 0.707107 2.15888e-016 0.707107
    outer loop
      vertex -3.45 -2.68468 6.14421
      vertex -7.80579 -18 10.5
      vertex -3.25281 -2.53337 5.94702
    endloop
  endfacet
  facet normal 0.707107 2.15888e-016 0.707107
    outer loop
      vertex -5 -3.1 7.69421
      vertex -7.80579 -18 10.5
      vertex -4.19766 -2.99437 6.89188
    endloop
  endfacet
  facet normal 0.707107 2.15888e-016 0.707107
    outer loop
      vertex -5.80234 -2.99437 8.49655
      vertex -7.80579 -18 10.5
      vertex -5 -3.1 7.69421
    endloop
  endfacet
  facet normal 0.707107 2.15888e-016 0.707107
    outer loop
      vertex -6.55 -2.68468 9.24421
      vertex -7.80579 -18 10.5
      vertex -5.80234 -2.99437 8.49655
    endloop
  endfacet
  facet normal 0.707107 2.15888e-016 0.707107
    outer loop
      vertex -7.19203 -2.19203 9.88625
      vertex -7.80579 -18 10.5
      vertex -6.55 -2.68468 9.24421
    endloop
  endfacet
  facet normal 0.707107 2.15888e-016 0.707107
    outer loop
      vertex -7.68468 -1.55 10.3789
      vertex -7.80579 -18 10.5
      vertex -7.19203 -2.19203 9.88625
    endloop
  endfacet
  facet normal 0.707107 2.15888e-016 0.707107
    outer loop
      vertex -7.80579 -1.25762 10.5
      vertex -7.80579 -18 10.5
      vertex -7.68468 -1.55 10.3789
    endloop
  endfacet
  facet normal 7.22838e-008 2.22045e-016 1
    outer loop
      vertex 2.80797 -2.19203 5.94702
      vertex -2.80797 2.19203 5.94702
      vertex -2.31532 1.55 5.94702
    endloop
  endfacet
  facet normal 7.22838e-008 2.22045e-016 1
    outer loop
      vertex -1.9 0 5.94702
      vertex 3.25281 -18 5.94702
      vertex -2.00563 0.802339 5.94702
    endloop
  endfacet
  facet normal 7.22838e-008 2.22045e-016 1
    outer loop
      vertex -2.00563 0.802339 5.94702
      vertex 3.25281 -2.53337 5.94702
      vertex -2.31532 1.55 5.94702
    endloop
  endfacet
  facet normal 7.22838e-008 2.22045e-016 1
    outer loop
      vertex -3.25281 2.53337 5.94702
      vertex -2.80797 2.19203 5.94702
      vertex 2.31532 -1.55 5.94702
    endloop
  endfacet
  facet normal 7.22838e-008 2.22045e-016 1
    outer loop
      vertex -2.00563 -0.802339 5.94702
      vertex -3.25281 -18 5.94702
      vertex -1.9 0 5.94702
    endloop
  endfacet
  facet normal 7.22838e-008 2.22045e-016 1
    outer loop
      vertex -2.31532 -1.55 5.94702
      vertex -3.25281 -18 5.94702
      vertex -2.00563 -0.802339 5.94702
    endloop
  endfacet
  facet normal 7.22838e-008 2.22045e-016 1
    outer loop
      vertex -2.80797 -2.19203 5.94702
      vertex -3.25281 -18 5.94702
      vertex -2.31532 -1.55 5.94702
    endloop
  endfacet
  facet normal 7.22838e-008 2.22045e-016 1
    outer loop
      vertex 2.00563 -0.802339 5.94702
      vertex 1.9 0 5.94702
      vertex -3.25281 2.53337 5.94702
    endloop
  endfacet
  facet normal 7.22838e-008 2.22045e-016 1
    outer loop
      vertex -3.25281 -2.53337 5.94702
      vertex -3.25281 -18 5.94702
      vertex -2.80797 -2.19203 5.94702
    endloop
  endfacet
  facet normal 7.22838e-008 2.22045e-016 1
    outer loop
      vertex -3.25281 -18 5.94702
      vertex 3.25281 -18 5.94702
      vertex -1.9 0 5.94702
    endloop
  endfacet
  facet normal 7.22838e-008 2.22045e-016 1
    outer loop
      vertex 3.25281 -18 5.94702
      vertex 3.25281 -2.53337 5.94702
      vertex -2.00563 0.802339 5.94702
    endloop
  endfacet
  facet normal 7.22838e-008 2.22045e-016 1
    outer loop
      vertex 3.25281 -2.53337 5.94702
      vertex 2.80797 -2.19203 5.94702
      vertex -2.31532 1.55 5.94702
    endloop
  endfacet
  facet normal 7.22838e-008 2.22045e-016 1
    outer loop
      vertex 1.9 0 5.94702
      vertex 2.00563 0.802339 5.94702
      vertex -3.25281 2.53337 5.94702
    endloop
  endfacet
  facet normal 7.22838e-008 2.22045e-016 1
    outer loop
      vertex 2.31532 -1.55 5.94702
      vertex 2.00563 -0.802339 5.94702
      vertex -3.25281 2.53337 5.94702
    endloop
  endfacet
  facet normal 7.22838e-008 2.22045e-016 1
    outer loop
      vertex 2.00563 0.802339 5.94702
      vertex 2.31532 1.55 5.94702
      vertex -3.25281 2.53337 5.94702
    endloop
  endfacet
  facet normal 7.22838e-008 2.22045e-016 1
    outer loop
      vertex 2.31532 1.55 5.94702
      vertex 2.80797 2.19203 5.94702
      vertex -3.25281 2.53337 5.94702
    endloop
  endfacet
  facet normal 7.22838e-008 2.22045e-016 1
    outer loop
      vertex 2.80797 2.19203 5.94702
      vertex 3.25281 2.53337 5.94702
      vertex -3.25281 2.53337 5.94702
    endloop
  endfacet
  facet normal 7.22838e-008 2.22045e-016 1
    outer loop
      vertex 3.25281 2.53337 5.94702
      vertex 3.25281 18 5.94702
      vertex -3.25281 2.53337 5.94702
    endloop
  endfacet
  facet normal 7.22838e-008 2.22045e-016 1
    outer loop
      vertex 3.25281 18 5.94702
      vertex -3.25281 18 5.94702
      vertex -3.25281 2.53337 5.94702
    endloop
  endfacet
  facet normal 7.22838e-008 2.22045e-016 1
    outer loop
      vertex 2.80797 -2.19203 5.94702
      vertex 2.31532 -1.55 5.94702
      vertex -2.80797 2.19203 5.94702
    endloop
  endfacet
  facet normal -0.707107 9.81308e-017 0.707107
    outer loop
      vertex 7.80579 -18 10.5
      vertex 7.80579 -1.25762 10.5
      vertex 3.25281 -18 5.94702
    endloop
  endfacet
  facet normal -0.707107 9.81308e-017 0.707107
    outer loop
      vertex 3.25281 -18 5.94702
      vertex 7.80579 -1.25762 10.5
      vertex 7.68468 -1.55 10.3789
    endloop
  endfacet
  facet normal -0.707107 9.81308e-017 0.707107
    outer loop
      vertex 3.25281 -18 5.94702
      vertex 7.68468 -1.55 10.3789
      vertex 7.19203 -2.19203 9.88625
    endloop
  endfacet
  facet normal -0.707107 9.81308e-017 0.707107
    outer loop
      vertex 7.19203 -2.19203 9.88625
      vertex 6.55 -2.68468 9.24421
      vertex 3.25281 -18 5.94702
    endloop
  endfacet
  facet normal -0.707107 9.81308e-017 0.707107
    outer loop
      vertex 6.55 -2.68468 9.24421
      vertex 5.80234 -2.99437 8.49655
      vertex 3.25281 -18 5.94702
    endloop
  endfacet
  facet normal -0.707107 9.81308e-017 0.707107
    outer loop
      vertex 5.80234 -2.99437 8.49655
      vertex 5 -3.1 7.69421
      vertex 3.25281 -18 5.94702
    endloop
  endfacet
  facet normal -0.707107 9.81308e-017 0.707107
    outer loop
      vertex 5 -3.1 7.69421
      vertex 4.19766 -2.99437 6.89188
      vertex 3.25281 -18 5.94702
    endloop
  endfacet
  facet normal -0.707107 9.81308e-017 0.707107
    outer loop
      vertex 4.19766 -2.99437 6.89188
      vertex 3.45 -2.68468 6.14421
      vertex 3.25281 -18 5.94702
    endloop
  endfacet
  facet normal -0.707107 9.81308e-017 0.707107
    outer loop
      vertex 3.45 -2.68468 6.14421
      vertex 3.25281 -2.53337 5.94702
      vertex 3.25281 -18 5.94702
    endloop
  endfacet
  facet normal 0 0 1
    outer loop
      vertex 7.80579 -1.25762 10.5
      vertex 7.80579 -18 10.5
      vertex 10 -18 10.5
    endloop
  endfacet
  facet normal 0 0 1
    outer loop
      vertex 7.99437 -0.802339 10.5
      vertex 7.80579 -1.25762 10.5
      vertex 10 -18 10.5
    endloop
  endfacet
  facet normal 0 0 1
    outer loop
      vertex 7.80579 18 10.5
      vertex 7.80579 1.25762 10.5
      vertex 10 18 10.5
    endloop
  endfacet
  facet normal 0 0 1
    outer loop
      vertex 7.80579 1.25762 10.5
      vertex 7.99437 0.802339 10.5
      vertex 10 18 10.5
    endloop
  endfacet
  facet normal 0 0 1
    outer loop
      vertex 10 18 10.5
      vertex 8.1 0 10.5
      vertex 10 -18 10.5
    endloop
  endfacet
  facet normal 0 0 1
    outer loop
      vertex 8.1 0 10.5
      vertex 7.99437 -0.802339 10.5
      vertex 10 -18 10.5
    endloop
  endfacet
  facet normal 0 0 1
    outer loop
      vertex 7.99437 0.802339 10.5
      vertex 8.1 0 10.5
      vertex 10 18 10.5
    endloop
  endfacet
  facet normal 1 0 0
    outer loop
      vertex 10 -18 10.5
      vertex 10 -18 -0.5
      vertex 10 -13.5 -0.5
    endloop
  endfacet
  facet normal 1 0 0
    outer loop
      vertex 10 -7.5 2
      vertex 10 -18 10.5
      vertex 10 -13.5 2
    endloop
  endfacet
  facet normal 1 0 0
    outer loop
      vertex 10 -13.5 2
      vertex 10 -18 10.5
      vertex 10 -13.5 -0.5
    endloop
  endfacet
  facet normal 1 0 0
    outer loop
      vertex 10 7.5 -0.5
      vertex 10 -18 10.5
      vertex 10 -7.5 2
    endloop
  endfacet
  facet normal 1 0 0
    outer loop
      vertex 10 7.5 -0.5
      vertex 10 -7.5 2
      vertex 10 -7.5 -0.5
    endloop
  endfacet
  facet normal 1 0 0
    outer loop
      vertex 10 7.5 2
      vertex 10 -18 10.5
      vertex 10 7.5 -0.5
    endloop
  endfacet
  facet normal 1 0 0
    outer loop
      vertex 10 13.5 2
      vertex 10 -18 10.5
      vertex 10 7.5 2
    endloop
  endfacet
  facet normal 1 0 0
    outer loop
      vertex 10 18 10.5
      vertex 10 -18 10.5
      vertex 10 13.5 2
    endloop
  endfacet
  facet normal 1 0 0
    outer loop
      vertex 10 18 -0.5
      vertex 10 13.5 2
      vertex 10 13.5 -0.5
    endloop
  endfacet
  facet normal 1 0 0
    outer loop
      vertex 10 18 10.5
      vertex 10 13.5 2
      vertex 10 18 -0.5
    endloop
  endfacet
  facet normal 0.965926 -0.258819 0
    outer loop
      vertex -6.6238 0.9375 -0.5
      vertex -6.6238 0.9375 3.6
      vertex -6.875 0 3.6
    endloop
  endfacet
  facet normal 0.965926 -0.258819 0
    outer loop
      vertex -6.875 0 -0.5
      vertex -6.6238 0.9375 -0.5
      vertex -6.875 0 3.6
    endloop
  endfacet
  facet normal 0.965926 0.258819 0
    outer loop
      vertex -6.875 0 3.6
      vertex -6.6238 -0.9375 3.6
      vertex -6.6238 -0.9375 -0.5
    endloop
  endfacet
  facet normal 0.965926 0.258819 0
    outer loop
      vertex -6.875 0 -0.5
      vertex -6.875 0 3.6
      vertex -6.6238 -0.9375 -0.5
    endloop
  endfacet
  facet normal 0.707107 -0.707107 0
    outer loop
      vertex -5.9375 1.6238 -0.5
      vertex -5.9375 1.6238 3.6
      vertex -6.6238 0.9375 3.6
    endloop
  endfacet
  facet normal 0.707107 -0.707107 0
    outer loop
      vertex -6.6238 0.9375 -0.5
      vertex -5.9375 1.6238 -0.5
      vertex -6.6238 0.9375 3.6
    endloop
  endfacet
  facet normal 0.258819 -0.965926 0
    outer loop
      vertex -5 1.875 -0.5
      vertex -5 1.875 3.6
      vertex -5.9375 1.6238 3.6
    endloop
  endfacet
  facet normal 0.258819 -0.965926 0
    outer loop
      vertex -5.9375 1.6238 -0.5
      vertex -5 1.875 -0.5
      vertex -5.9375 1.6238 3.6
    endloop
  endfacet
  facet normal -0.258819 -0.965926 0
    outer loop
      vertex -4.0625 1.6238 -0.5
      vertex -4.0625 1.6238 3.6
      vertex -5 1.875 3.6
    endloop
  endfacet
  facet normal -0.258819 -0.965926 0
    outer loop
      vertex -5 1.875 -0.5
      vertex -4.0625 1.6238 -0.5
      vertex -5 1.875 3.6
    endloop
  endfacet
  facet normal -0.707107 -0.707107 0
    outer loop
      vertex -3.3762 0.9375 -0.5
      vertex -3.3762 0.9375 3.6
      vertex -4.0625 1.6238 3.6
    endloop
  endfacet
  facet normal -0.707107 -0.707107 0
    outer loop
      vertex -4.0625 1.6238 -0.5
      vertex -3.3762 0.9375 -0.5
      vertex -4.0625 1.6238 3.6
    endloop
  endfacet
  facet normal -0.965926 -0.258819 0
    outer loop
      vertex -3.125 0 3.6
      vertex -3.3762 0.9375 3.6
      vertex -3.125 0 -0.5
    endloop
  endfacet
  facet normal -0.965926 -0.258819 0
    outer loop
      vertex -3.125 0 -0.5
      vertex -3.3762 0.9375 3.6
      vertex -3.3762 0.9375 -0.5
    endloop
  endfacet
  facet normal -0.965926 0.258819 0
    outer loop
      vertex -3.125 0 3.6
      vertex -3.125 0 -0.5
      vertex -3.3762 -0.9375 3.6
    endloop
  endfacet
  facet normal -0.965926 0.258819 0
    outer loop
      vertex -3.3762 -0.9375 3.6
      vertex -3.125 0 -0.5
      vertex -3.3762 -0.9375 -0.5
    endloop
  endfacet
  facet normal -0.707107 0.707107 0
    outer loop
      vertex -3.3762 -0.9375 3.6
      vertex -3.3762 -0.9375 -0.5
      vertex -4.0625 -1.6238 3.6
    endloop
  endfacet
  facet normal -0.707107 0.707107 0
    outer loop
      vertex -4.0625 -1.6238 3.6
      vertex -3.3762 -0.9375 -0.5
      vertex -4.0625 -1.6238 -0.5
    endloop
  endfacet
  facet normal -0.258819 0.965926 0
    outer loop
      vertex -4.0625 -1.6238 3.6
      vertex -4.0625 -1.6238 -0.5
      vertex -5 -1.875 3.6
    endloop
  endfacet
  facet normal -0.258819 0.965926 0
    outer loop
      vertex -5 -1.875 3.6
      vertex -4.0625 -1.6238 -0.5
      vertex -5 -1.875 -0.5
    endloop
  endfacet
  facet normal 0.258819 0.965926 0
    outer loop
      vertex -5 -1.875 3.6
      vertex -5 -1.875 -0.5
      vertex -5.9375 -1.6238 3.6
    endloop
  endfacet
  facet normal 0.258819 0.965926 0
    outer loop
      vertex -5.9375 -1.6238 3.6
      vertex -5 -1.875 -0.5
      vertex -5.9375 -1.6238 -0.5
    endloop
  endfacet
  facet normal 0.707107 0.707107 0
    outer loop
      vertex -5.9375 -1.6238 3.6
      vertex -5.9375 -1.6238 -0.5
      vertex -6.6238 -0.9375 3.6
    endloop
  endfacet
  facet normal 0.707107 0.707107 0
    outer loop
      vertex -6.6238 -0.9375 3.6
      vertex -5.9375 -1.6238 -0.5
      vertex -6.6238 -0.9375 -0.5
    endloop
  endfacet
  facet normal 0.965926 -0.258819 0
    outer loop
      vertex 3.3762 0.9375 -0.5
      vertex 3.3762 0.9375 3.6
      vertex 3.125 0 3.6
    endloop
  endfacet
  facet normal 0.965926 -0.258819 0
    outer loop
      vertex 3.125 0 -0.5
      vertex 3.3762 0.9375 -0.5
      vertex 3.125 0 3.6
    endloop
  endfacet
  facet normal 0.965926 0.258819 0
    outer loop
      vertex 3.125 0 3.6
      vertex 3.3762 -0.9375 3.6
      vertex 3.3762 -0.9375 -0.5
    endloop
  endfacet
  facet normal 0.965926 0.258819 0
    outer loop
      vertex 3.125 0 -0.5
      vertex 3.125 0 3.6
      vertex 3.3762 -0.9375 -0.5
    endloop
  endfacet
  facet normal 0.707107 -0.707107 0
    outer loop
      vertex 4.0625 1.6238 -0.5
      vertex 4.0625 1.6238 3.6
      vertex 3.3762 0.9375 3.6
    endloop
  endfacet
  facet normal 0.707107 -0.707107 0
    outer loop
      vertex 3.3762 0.9375 -0.5
      vertex 4.0625 1.6238 -0.5
      vertex 3.3762 0.9375 3.6
    endloop
  endfacet
  facet normal 0.258819 -0.965926 0
    outer loop
      vertex 5 1.875 -0.5
      vertex 5 1.875 3.6
      vertex 4.0625 1.6238 3.6
    endloop
  endfacet
  facet normal 0.258819 -0.965926 0
    outer loop
      vertex 4.0625 1.6238 -0.5
      vertex 5 1.875 -0.5
      vertex 4.0625 1.6238 3.6
    endloop
  endfacet
  facet normal -0.258819 -0.965926 0
    outer loop
      vertex 5.9375 1.6238 -0.5
      vertex 5.9375 1.6238 3.6
      vertex 5 1.875 3.6
    endloop
  endfacet
  facet normal -0.258819 -0.965926 0
    outer loop
      vertex 5 1.875 -0.5
      vertex 5.9375 1.6238 -0.5
      vertex 5 1.875 3.6
    endloop
  endfacet
  facet normal -0.707107 -0.707107 0
    outer loop
      vertex 6.6238 0.9375 -0.5
      vertex 6.6238 0.9375 3.6
      vertex 5.9375 1.6238 3.6
    endloop
  endfacet
  facet normal -0.707107 -0.707107 0
    outer loop
      vertex 5.9375 1.6238 -0.5
      vertex 6.6238 0.9375 -0.5
      vertex 5.9375 1.6238 3.6
    endloop
  endfacet
  facet normal -0.965926 -0.258819 0
    outer loop
      vertex 6.875 0 3.6
      vertex 6.6238 0.9375 3.6
      vertex 6.875 0 -0.5
    endloop
  endfacet
  facet normal -0.965926 -0.258819 0
    outer loop
      vertex 6.875 0 -0.5
      vertex 6.6238 0.9375 3.6
      vertex 6.6238 0.9375 -0.5
    endloop
  endfacet
  facet normal -0.965926 0.258819 0
    outer loop
      vertex 6.875 0 3.6
      vertex 6.875 0 -0.5
      vertex 6.6238 -0.9375 3.6
    endloop
  endfacet
  facet normal -0.965926 0.258819 0
    outer loop
      vertex 6.6238 -0.9375 3.6
      vertex 6.875 0 -0.5
      vertex 6.6238 -0.9375 -0.5
    endloop
  endfacet
  facet normal -0.707107 0.707107 0
    outer loop
      vertex 6.6238 -0.9375 3.6
      vertex 6.6238 -0.9375 -0.5
      vertex 5.9375 -1.6238 3.6
    endloop
  endfacet
  facet normal -0.707107 0.707107 0
    outer loop
      vertex 5.9375 -1.6238 3.6
      vertex 6.6238 -0.9375 -0.5
      vertex 5.9375 -1.6238 -0.5
    endloop
  endfacet
  facet normal -0.258819 0.965926 0
    outer loop
      vertex 5.9375 -1.6238 3.6
      vertex 5.9375 -1.6238 -0.5
      vertex 5 -1.875 3.6
    endloop
  endfacet
  facet normal -0.258819 0.965926 0
    outer loop
      vertex 5 -1.875 3.6
      vertex 5.9375 -1.6238 -0.5
      vertex 5 -1.875 -0.5
    endloop
  endfacet
  facet normal 0.258819 0.965926 0
    outer loop
      vertex 5 -1.875 3.6
      vertex 5 -1.875 -0.5
      vertex 4.0625 -1.6238 3.6
    endloop
  endfacet
  facet normal 0.258819 0.965926 0
    outer loop
      vertex 4.0625 -1.6238 3.6
      vertex 5 -1.875 -0.5
      vertex 4.0625 -1.6238 -0.5
    endloop
  endfacet
  facet normal 0.707107 0.707107 0
    outer loop
      vertex 4.0625 -1.6238 3.6
      vertex 4.0625 -1.6238 -0.5
      vertex 3.3762 -0.9375 3.6
    endloop
  endfacet
  facet normal 0.707107 0.707107 0
    outer loop
      vertex 3.3762 -0.9375 3.6
      vertex 4.0625 -1.6238 -0.5
      vertex 3.3762 -0.9375 -0.5
    endloop
  endfacet
  facet normal -0.707107 9.81308e-017 0.707107
    outer loop
      vertex 3.45 2.68468 6.14421
      vertex 7.80579 18 10.5
      vertex 3.25281 2.53337 5.94702
    endloop
  endfacet
  facet normal -0.707107 9.81308e-017 0.707107
    outer loop
      vertex 3.45 2.68468 6.14421
      vertex 4.19766 2.99437 6.89188
      vertex 7.80579 18 10.5
    endloop
  endfacet
  facet normal -0.707107 9.81308e-017 0.707107
    outer loop
      vertex 4.19766 2.99437 6.89188
      vertex 5 3.1 7.69421
      vertex 7.80579 18 10.5
    endloop
  endfacet
  facet normal -0.707107 9.81308e-017 0.707107
    outer loop
      vertex 5 3.1 7.69421
      vertex 5.80234 2.99437 8.49655
      vertex 7.80579 18 10.5
    endloop
  endfacet
  facet normal -0.707107 9.81308e-017 0.707107
    outer loop
      vertex 5.80234 2.99437 8.49655
      vertex 6.55 2.68468 9.24421
      vertex 7.80579 18 10.5
    endloop
  endfacet
  facet normal -0.707107 9.81308e-017 0.707107
    outer loop
      vertex 7.80579 18 10.5
      vertex 7.19203 2.19203 9.88625
      vertex 7.68468 1.55 10.3789
    endloop
  endfacet
  facet normal -0.707107 9.81308e-017 0.707107
    outer loop
      vertex 7.80579 18 10.5
      vertex 7.68468 1.55 10.3789
      vertex 7.80579 1.25762 10.5
    endloop
  endfacet
  facet normal -0.707107 9.81308e-017 0.707107
    outer loop
      vertex 6.55 2.68468 9.24421
      vertex 7.19203 2.19203 9.88625
      vertex 7.80579 18 10.5
    endloop
  endfacet
  facet normal -0.707107 9.81308e-017 0.707107
    outer loop
      vertex 7.80579 18 10.5
      vertex 3.25281 18 5.94702
      vertex 3.25281 2.53337 5.94702
    endloop
  endfacet
  facet normal 0.707107 2.15888e-016 0.707107
    outer loop
      vertex -3.25281 18 5.94702
      vertex -7.68468 1.55 10.3789
      vertex -7.19203 2.19203 9.88625
    endloop
  endfacet
  facet normal 0.707107 2.15888e-016 0.707107
    outer loop
      vertex -5.80234 2.99437 8.49655
      vertex -3.25281 18 5.94702
      vertex -6.55 2.68468 9.24421
    endloop
  endfacet
  facet normal 0.707107 2.15888e-016 0.707107
    outer loop
      vertex -6.55 2.68468 9.24421
      vertex -3.25281 18 5.94702
      vertex -7.19203 2.19203 9.88625
    endloop
  endfacet
  facet normal 0.707107 2.15888e-016 0.707107
    outer loop
      vertex -7.80579 1.25762 10.5
      vertex -7.68468 1.55 10.3789
      vertex -3.25281 18 5.94702
    endloop
  endfacet
  facet normal 0.707107 2.15888e-016 0.707107
    outer loop
      vertex -5 3.1 7.69421
      vertex -3.25281 18 5.94702
      vertex -5.80234 2.99437 8.49655
    endloop
  endfacet
  facet normal 0.707107 2.15888e-016 0.707107
    outer loop
      vertex -4.19766 2.99437 6.89188
      vertex -3.25281 18 5.94702
      vertex -5 3.1 7.69421
    endloop
  endfacet
  facet normal 0.707107 2.15888e-016 0.707107
    outer loop
      vertex -3.45 2.68468 6.14421
      vertex -3.25281 18 5.94702
      vertex -4.19766 2.99437 6.89188
    endloop
  endfacet
  facet normal 0.707107 2.15888e-016 0.707107
    outer loop
      vertex -3.25281 2.53337 5.94702
      vertex -3.25281 18 5.94702
      vertex -3.45 2.68468 6.14421
    endloop
  endfacet
  facet normal 0.707107 2.15888e-016 0.707107
    outer loop
      vertex -3.25281 18 5.94702
      vertex -7.80579 18 10.5
      vertex -7.80579 1.25762 10.5
    endloop
  endfacet
  facet normal 0.92388 -0.382683 0
    outer loop
      vertex -7.68468 1.55 3.6
      vertex -7.68468 1.55 10.3789
      vertex -7.80579 1.25762 10.5
    endloop
  endfacet
  facet normal 0.92388 -0.382683 0
    outer loop
      vertex -7.99437 0.802339 3.6
      vertex -7.68468 1.55 3.6
      vertex -7.99437 0.802339 10.5
    endloop
  endfacet
  facet normal 0.92388 -0.382683 0
    outer loop
      vertex -7.99437 0.802339 10.5
      vertex -7.68468 1.55 3.6
      vertex -7.80579 1.25762 10.5
    endloop
  endfacet
  facet normal 0.991445 -0.130526 0
    outer loop
      vertex -7.99437 0.802339 3.6
      vertex -7.99437 0.802339 10.5
      vertex -8.1 0 10.5
    endloop
  endfacet
  facet normal 0.991445 -0.130526 0
    outer loop
      vertex -8.1 0 3.6
      vertex -7.99437 0.802339 3.6
      vertex -8.1 0 10.5
    endloop
  endfacet
  facet normal 0.991445 0.130526 0
    outer loop
      vertex -8.1 0 10.5
      vertex -7.99437 -0.802339 10.5
      vertex -7.99437 -0.802339 3.6
    endloop
  endfacet
  facet normal 0.991445 0.130526 0
    outer loop
      vertex -8.1 0 3.6
      vertex -8.1 0 10.5
      vertex -7.99437 -0.802339 3.6
    endloop
  endfacet
  facet normal 0.92388 0.382683 0
    outer loop
      vertex -7.99437 -0.802339 10.5
      vertex -7.80579 -1.25762 10.5
      vertex -7.68468 -1.55 10.3789
    endloop
  endfacet
  facet normal 0.92388 0.382683 0
    outer loop
      vertex -7.99437 -0.802339 3.6
      vertex -7.99437 -0.802339 10.5
      vertex -7.68468 -1.55 3.6
    endloop
  endfacet
  facet normal 0.92388 0.382683 0
    outer loop
      vertex -7.68468 -1.55 3.6
      vertex -7.99437 -0.802339 10.5
      vertex -7.68468 -1.55 10.3789
    endloop
  endfacet
  facet normal 0.793353 0.608762 0
    outer loop
      vertex -7.68468 -1.55 10.3789
      vertex -7.19203 -2.19203 9.88625
      vertex -7.19203 -2.19203 3.6
    endloop
  endfacet
  facet normal 0.793353 0.608762 0
    outer loop
      vertex -7.68468 -1.55 3.6
      vertex -7.68468 -1.55 10.3789
      vertex -7.19203 -2.19203 3.6
    endloop
  endfacet
  facet normal 0.608762 0.793353 0
    outer loop
      vertex -6.55 -2.68468 9.24421
      vertex -6.55 -2.68468 3.6
      vertex -7.19203 -2.19203 9.88625
    endloop
  endfacet
  facet normal 0.608762 0.793353 0
    outer loop
      vertex -7.19203 -2.19203 9.88625
      vertex -6.55 -2.68468 3.6
      vertex -7.19203 -2.19203 3.6
    endloop
  endfacet
  facet normal 0.382683 0.92388 0
    outer loop
      vertex -5.80234 -2.99437 8.49655
      vertex -5.80234 -2.99437 3.6
      vertex -6.55 -2.68468 9.24421
    endloop
  endfacet
  facet normal 0.382683 0.92388 0
    outer loop
      vertex -6.55 -2.68468 9.24421
      vertex -5.80234 -2.99437 3.6
      vertex -6.55 -2.68468 3.6
    endloop
  endfacet
  facet normal 0.130526 0.991445 0
    outer loop
      vertex -5 -3.1 7.69421
      vertex -5 -3.1 3.6
      vertex -5.80234 -2.99437 8.49655
    endloop
  endfacet
  facet normal 0.130526 0.991445 0
    outer loop
      vertex -5.80234 -2.99437 8.49655
      vertex -5 -3.1 3.6
      vertex -5.80234 -2.99437 3.6
    endloop
  endfacet
  facet normal -0.130526 0.991445 0
    outer loop
      vertex -4.19766 -2.99437 6.89188
      vertex -4.19766 -2.99437 3.6
      vertex -5 -3.1 7.69421
    endloop
  endfacet
  facet normal -0.130526 0.991445 0
    outer loop
      vertex -5 -3.1 7.69421
      vertex -4.19766 -2.99437 3.6
      vertex -5 -3.1 3.6
    endloop
  endfacet
  facet normal -0.382683 0.92388 0
    outer loop
      vertex -3.45 -2.68468 6.14421
      vertex -3.45 -2.68468 3.6
      vertex -4.19766 -2.99437 6.89188
    endloop
  endfacet
  facet normal -0.382683 0.92388 0
    outer loop
      vertex -4.19766 -2.99437 6.89188
      vertex -3.45 -2.68468 3.6
      vertex -4.19766 -2.99437 3.6
    endloop
  endfacet
  facet normal -0.608762 0.793353 0
    outer loop
      vertex -3.25281 -2.53337 5.94702
      vertex -2.80797 -2.19203 5.94702
      vertex -2.80797 -2.19203 3.6
    endloop
  endfacet
  facet normal -0.608762 0.793353 0
    outer loop
      vertex -3.25281 -2.53337 5.94702
      vertex -2.80797 -2.19203 3.6
      vertex -3.45 -2.68468 6.14421
    endloop
  endfacet
  facet normal -0.608762 0.793353 0
    outer loop
      vertex -2.80797 -2.19203 3.6
      vertex -3.45 -2.68468 3.6
      vertex -3.45 -2.68468 6.14421
    endloop
  endfacet
  facet normal -0.608762 -0.793353 0
    outer loop
      vertex -2.80797 2.19203 3.6
      vertex -2.80797 2.19203 5.94702
      vertex -3.25281 2.53337 5.94702
    endloop
  endfacet
  facet normal -0.608762 -0.793353 0
    outer loop
      vertex -3.45 2.68468 6.14421
      vertex -2.80797 2.19203 3.6
      vertex -3.25281 2.53337 5.94702
    endloop
  endfacet
  facet normal -0.608762 -0.793353 0
    outer loop
      vertex -3.45 2.68468 6.14421
      vertex -3.45 2.68468 3.6
      vertex -2.80797 2.19203 3.6
    endloop
  endfacet
  facet normal 0.608762 -0.793353 0
    outer loop
      vertex 3.45 2.68468 3.6
      vertex 3.45 2.68468 6.14421
      vertex 3.25281 2.53337 5.94702
    endloop
  endfacet
  facet normal 0.608762 -0.793353 0
    outer loop
      vertex 2.80797 2.19203 5.94702
      vertex 3.45 2.68468 3.6
      vertex 3.25281 2.53337 5.94702
    endloop
  endfacet
  facet normal 0.608762 -0.793353 0
    outer loop
      vertex 2.80797 2.19203 5.94702
      vertex 2.80797 2.19203 3.6
      vertex 3.45 2.68468 3.6
    endloop
  endfacet
  facet normal 0.793353 -0.608762 0
    outer loop
      vertex 2.80797 2.19203 3.6
      vertex 2.80797 2.19203 5.94702
      vertex 2.31532 1.55 5.94702
    endloop
  endfacet
  facet normal 0.793353 -0.608762 0
    outer loop
      vertex 2.31532 1.55 3.6
      vertex 2.80797 2.19203 3.6
      vertex 2.31532 1.55 5.94702
    endloop
  endfacet
  facet normal 0.92388 -0.382683 0
    outer loop
      vertex 2.31532 1.55 3.6
      vertex 2.31532 1.55 5.94702
      vertex 2.00563 0.802339 5.94702
    endloop
  endfacet
  facet normal 0.92388 -0.382683 0
    outer loop
      vertex 2.00563 0.802339 3.6
      vertex 2.31532 1.55 3.6
      vertex 2.00563 0.802339 5.94702
    endloop
  endfacet
  facet normal 0.991445 -0.130526 0
    outer loop
      vertex 2.00563 0.802339 3.6
      vertex 2.00563 0.802339 5.94702
      vertex 1.9 0 5.94702
    endloop
  endfacet
  facet normal 0.991445 -0.130526 0
    outer loop
      vertex 1.9 0 3.6
      vertex 2.00563 0.802339 3.6
      vertex 1.9 0 5.94702
    endloop
  endfacet
  facet normal 0.991445 0.130526 0
    outer loop
      vertex 1.9 0 5.94702
      vertex 2.00563 -0.802339 5.94702
      vertex 2.00563 -0.802339 3.6
    endloop
  endfacet
  facet normal 0.991445 0.130526 0
    outer loop
      vertex 1.9 0 3.6
      vertex 1.9 0 5.94702
      vertex 2.00563 -0.802339 3.6
    endloop
  endfacet
  facet normal 0.92388 0.382683 0
    outer loop
      vertex 2.00563 -0.802339 5.94702
      vertex 2.31532 -1.55 5.94702
      vertex 2.31532 -1.55 3.6
    endloop
  endfacet
  facet normal 0.92388 0.382683 0
    outer loop
      vertex 2.00563 -0.802339 3.6
      vertex 2.00563 -0.802339 5.94702
      vertex 2.31532 -1.55 3.6
    endloop
  endfacet
  facet normal 0.793353 0.608762 0
    outer loop
      vertex 2.31532 -1.55 5.94702
      vertex 2.80797 -2.19203 5.94702
      vertex 2.80797 -2.19203 3.6
    endloop
  endfacet
  facet normal 0.793353 0.608762 0
    outer loop
      vertex 2.31532 -1.55 3.6
      vertex 2.31532 -1.55 5.94702
      vertex 2.80797 -2.19203 3.6
    endloop
  endfacet
  facet normal 0.608762 0.793353 0
    outer loop
      vertex 3.25281 -2.53337 5.94702
      vertex 3.45 -2.68468 6.14421
      vertex 3.45 -2.68468 3.6
    endloop
  endfacet
  facet normal 0.608762 0.793353 0
    outer loop
      vertex 3.25281 -2.53337 5.94702
      vertex 3.45 -2.68468 3.6
      vertex 2.80797 -2.19203 5.94702
    endloop
  endfacet
  facet normal 0.608762 0.793353 0
    outer loop
      vertex 3.45 -2.68468 3.6
      vertex 2.80797 -2.19203 3.6
      vertex 2.80797 -2.19203 5.94702
    endloop
  endfacet
  facet normal -0.793353 0.608762 0
    outer loop
      vertex -2.31532 -1.55 5.94702
      vertex -2.31532 -1.55 3.6
      vertex -2.80797 -2.19203 5.94702
    endloop
  endfacet
  facet normal -0.793353 0.608762 0
    outer loop
      vertex -2.80797 -2.19203 5.94702
      vertex -2.31532 -1.55 3.6
      vertex -2.80797 -2.19203 3.6
    endloop
  endfacet
  facet normal -0.92388 0.382683 0
    outer loop
      vertex -2.00563 -0.802339 5.94702
      vertex -2.00563 -0.802339 3.6
      vertex -2.31532 -1.55 5.94702
    endloop
  endfacet
  facet normal -0.92388 0.382683 0
    outer loop
      vertex -2.31532 -1.55 5.94702
      vertex -2.00563 -0.802339 3.6
      vertex -2.31532 -1.55 3.6
    endloop
  endfacet
  facet normal -0.991445 0.130526 0
    outer loop
      vertex -1.9 0 5.94702
      vertex -1.9 0 3.6
      vertex -2.00563 -0.802339 5.94702
    endloop
  endfacet
  facet normal -0.991445 0.130526 0
    outer loop
      vertex -2.00563 -0.802339 5.94702
      vertex -1.9 0 3.6
      vertex -2.00563 -0.802339 3.6
    endloop
  endfacet
  facet normal -0.991445 -0.130526 0
    outer loop
      vertex -1.9 0 5.94702
      vertex -2.00563 0.802339 5.94702
      vertex -1.9 0 3.6
    endloop
  endfacet
  facet normal -0.991445 -0.130526 0
    outer loop
      vertex -1.9 0 3.6
      vertex -2.00563 0.802339 5.94702
      vertex -2.00563 0.802339 3.6
    endloop
  endfacet
  facet normal -0.92388 -0.382683 0
    outer loop
      vertex -2.00563 0.802339 5.94702
      vertex -2.31532 1.55 5.94702
      vertex -2.00563 0.802339 3.6
    endloop
  endfacet
  facet normal -0.92388 -0.382683 0
    outer loop
      vertex -2.00563 0.802339 3.6
      vertex -2.31532 1.55 5.94702
      vertex -2.31532 1.55 3.6
    endloop
  endfacet
  facet normal -0.793353 -0.608762 0
    outer loop
      vertex -2.31532 1.55 5.94702
      vertex -2.80797 2.19203 5.94702
      vertex -2.31532 1.55 3.6
    endloop
  endfacet
  facet normal -0.793353 -0.608762 0
    outer loop
      vertex -2.31532 1.55 3.6
      vertex -2.80797 2.19203 5.94702
      vertex -2.80797 2.19203 3.6
    endloop
  endfacet
  facet normal 0.382683 0.92388 0
    outer loop
      vertex 4.19766 -2.99437 6.89188
      vertex 4.19766 -2.99437 3.6
      vertex 3.45 -2.68468 6.14421
    endloop
  endfacet
  facet normal 0.382683 0.92388 0
    outer loop
      vertex 3.45 -2.68468 6.14421
      vertex 4.19766 -2.99437 3.6
      vertex 3.45 -2.68468 3.6
    endloop
  endfacet
  facet normal 0.130526 0.991445 0
    outer loop
      vertex 5 -3.1 7.69421
      vertex 5 -3.1 3.6
      vertex 4.19766 -2.99437 6.89188
    endloop
  endfacet
  facet normal 0.130526 0.991445 0
    outer loop
      vertex 4.19766 -2.99437 6.89188
      vertex 5 -3.1 3.6
      vertex 4.19766 -2.99437 3.6
    endloop
  endfacet
  facet normal -0.130526 0.991445 0
    outer loop
      vertex 5.80234 -2.99437 8.49655
      vertex 5.80234 -2.99437 3.6
      vertex 5 -3.1 7.69421
    endloop
  endfacet
  facet normal -0.130526 0.991445 0
    outer loop
      vertex 5 -3.1 7.69421
      vertex 5.80234 -2.99437 3.6
      vertex 5 -3.1 3.6
    endloop
  endfacet
  facet normal -0.382683 0.92388 0
    outer loop
      vertex 6.55 -2.68468 9.24421
      vertex 6.55 -2.68468 3.6
      vertex 5.80234 -2.99437 8.49655
    endloop
  endfacet
  facet normal -0.382683 0.92388 0
    outer loop
      vertex 5.80234 -2.99437 8.49655
      vertex 6.55 -2.68468 3.6
      vertex 5.80234 -2.99437 3.6
    endloop
  endfacet
  facet normal -0.608762 0.793353 0
    outer loop
      vertex 7.19203 -2.19203 9.88625
      vertex 7.19203 -2.19203 3.6
      vertex 6.55 -2.68468 9.24421
    endloop
  endfacet
  facet normal -0.608762 0.793353 0
    outer loop
      vertex 6.55 -2.68468 9.24421
      vertex 7.19203 -2.19203 3.6
      vertex 6.55 -2.68468 3.6
    endloop
  endfacet
  facet normal -0.793353 0.608762 0
    outer loop
      vertex 7.68468 -1.55 10.3789
      vertex 7.68468 -1.55 3.6
      vertex 7.19203 -2.19203 9.88625
    endloop
  endfacet
  facet normal -0.793353 0.608762 0
    outer loop
      vertex 7.19203 -2.19203 9.88625
      vertex 7.68468 -1.55 3.6
      vertex 7.19203 -2.19203 3.6
    endloop
  endfacet
  facet normal -0.92388 0.382683 0
    outer loop
      vertex 7.80579 -1.25762 10.5
      vertex 7.99437 -0.802339 10.5
      vertex 7.68468 -1.55 10.3789
    endloop
  endfacet
  facet normal -0.92388 0.382683 0
    outer loop
      vertex 7.68468 -1.55 10.3789
      vertex 7.99437 -0.802339 10.5
      vertex 7.99437 -0.802339 3.6
    endloop
  endfacet
  facet normal -0.92388 0.382683 0
    outer loop
      vertex 7.68468 -1.55 10.3789
      vertex 7.99437 -0.802339 3.6
      vertex 7.68468 -1.55 3.6
    endloop
  endfacet
  facet normal -0.991445 0.130526 0
    outer loop
      vertex 8.1 0 10.5
      vertex 8.1 0 3.6
      vertex 7.99437 -0.802339 10.5
    endloop
  endfacet
  facet normal -0.991445 0.130526 0
    outer loop
      vertex 7.99437 -0.802339 10.5
      vertex 8.1 0 3.6
      vertex 7.99437 -0.802339 3.6
    endloop
  endfacet
  facet normal -0.991445 -0.130526 0
    outer loop
      vertex 8.1 0 10.5
      vertex 7.99437 0.802339 10.5
      vertex 8.1 0 3.6
    endloop
  endfacet
  facet normal -0.991445 -0.130526 0
    outer loop
      vertex 8.1 0 3.6
      vertex 7.99437 0.802339 10.5
      vertex 7.99437 0.802339 3.6
    endloop
  endfacet
  facet normal -0.92388 -0.382683 0
    outer loop
      vertex 7.99437 0.802339 10.5
      vertex 7.80579 1.25762 10.5
      vertex 7.99437 0.802339 3.6
    endloop
  endfacet
  facet normal -0.92388 -0.382683 0
    outer loop
      vertex 7.99437 0.802339 3.6
      vertex 7.80579 1.25762 10.5
      vertex 7.68468 1.55 10.3789
    endloop
  endfacet
  facet normal -0.92388 -0.382683 0
    outer loop
      vertex 7.99437 0.802339 3.6
      vertex 7.68468 1.55 10.3789
      vertex 7.68468 1.55 3.6
    endloop
  endfacet
  facet normal 0 0 1
    outer loop
      vertex -7.99437 -0.802339 3.6
      vertex -7.68468 -1.55 3.6
      vertex -7.19203 -2.19203 3.6
    endloop
  endfacet
  facet normal 0 0 1
    outer loop
      vertex -5.80234 -2.99437 3.6
      vertex -7.99437 -0.802339 3.6
      vertex -6.55 -2.68468 3.6
    endloop
  endfacet
  facet normal 0 0 1
    outer loop
      vertex -6.55 -2.68468 3.6
      vertex -7.99437 -0.802339 3.6
      vertex -7.19203 -2.19203 3.6
    endloop
  endfacet
  facet normal 0 0 1
    outer loop
      vertex -5 -3.1 3.6
      vertex -7.99437 -0.802339 3.6
      vertex -5.80234 -2.99437 3.6
    endloop
  endfacet
  facet normal 0 0 1
    outer loop
      vertex -4.19766 -2.99437 3.6
      vertex -7.99437 -0.802339 3.6
      vertex -5 -3.1 3.6
    endloop
  endfacet
  facet normal 0 0 1
    outer loop
      vertex -3.45 -2.68468 3.6
      vertex -7.99437 -0.802339 3.6
      vertex -4.19766 -2.99437 3.6
    endloop
  endfacet
  facet normal 0 0 1
    outer loop
      vertex -5.9375 -1.6238 3.6
      vertex -7.99437 -0.802339 3.6
      vertex -3.45 -2.68468 3.6
    endloop
  endfacet
  facet normal 0 0 1
    outer loop
      vertex -4.0625 -1.6238 3.6
      vertex -5 -1.875 3.6
      vertex -2.80797 -2.19203 3.6
    endloop
  endfacet
  facet normal 0 0 1
    outer loop
      vertex -6.875 0 3.6
      vertex -6.6238 0.9375 3.6
      vertex -7.99437 -0.802339 3.6
    endloop
  endfacet
  facet normal 0 0 1
    outer loop
      vertex -4.0625 1.6238 3.6
      vertex -3.3762 0.9375 3.6
      vertex -2.31532 1.55 3.6
    endloop
  endfacet
  facet normal 0 0 1
    outer loop
      vertex -5 1.875 3.6
      vertex -4.0625 1.6238 3.6
      vertex -3.45 2.68468 3.6
    endloop
  endfacet
  facet normal 0 0 1
    outer loop
      vertex -5.80234 2.99437 3.6
      vertex -7.99437 -0.802339 3.6
      vertex -5 3.1 3.6
    endloop
  endfacet
  facet normal 0 0 1
    outer loop
      vertex -6.55 2.68468 3.6
      vertex -7.99437 -0.802339 3.6
      vertex -5.80234 2.99437 3.6
    endloop
  endfacet
  facet normal 0 0 1
    outer loop
      vertex -7.19203 2.19203 3.6
      vertex -7.99437 -0.802339 3.6
      vertex -6.55 2.68468 3.6
    endloop
  endfacet
  facet normal 0 0 1
    outer loop
      vertex -7.68468 1.55 3.6
      vertex -7.99437 -0.802339 3.6
      vertex -7.19203 2.19203 3.6
    endloop
  endfacet
  facet normal 0 0 1
    outer loop
      vertex -7.99437 0.802339 3.6
      vertex -7.99437 -0.802339 3.6
      vertex -7.68468 1.55 3.6
    endloop
  endfacet
  facet normal 0 0 1
    outer loop
      vertex -8.1 0 3.6
      vertex -7.99437 -0.802339 3.6
      vertex -7.99437 0.802339 3.6
    endloop
  endfacet
  facet normal 0 0 1
    outer loop
      vertex -3.3762 -0.9375 3.6
      vertex -4.0625 -1.6238 3.6
      vertex -2.31532 -1.55 3.6
    endloop
  endfacet
  facet normal 0 0 1
    outer loop
      vertex -5 3.1 3.6
      vertex -7.99437 -0.802339 3.6
      vertex -6.6238 0.9375 3.6
    endloop
  endfacet
  facet normal 0 0 1
    outer loop
      vertex -5 3.1 3.6
      vertex -5.9375 1.6238 3.6
      vertex -4.19766 2.99437 3.6
    endloop
  endfacet
  facet normal 0 0 1
    outer loop
      vertex -5 3.1 3.6
      vertex -6.6238 0.9375 3.6
      vertex -5.9375 1.6238 3.6
    endloop
  endfacet
  facet normal 0 0 1
    outer loop
      vertex -4.19766 2.99437 3.6
      vertex -5 1.875 3.6
      vertex -3.45 2.68468 3.6
    endloop
  endfacet
  facet normal 0 0 1
    outer loop
      vertex -5.9375 1.6238 3.6
      vertex -5 1.875 3.6
      vertex -4.19766 2.99437 3.6
    endloop
  endfacet
  facet normal 0 0 1
    outer loop
      vertex -3.45 2.68468 3.6
      vertex -4.0625 1.6238 3.6
      vertex -2.80797 2.19203 3.6
    endloop
  endfacet
  facet normal 0 0 1
    outer loop
      vertex -2.31532 1.55 3.6
      vertex -3.3762 0.9375 3.6
      vertex -2.00563 0.802339 3.6
    endloop
  endfacet
  facet normal 0 0 1
    outer loop
      vertex -4.0625 1.6238 3.6
      vertex -2.31532 1.55 3.6
      vertex -2.80797 2.19203 3.6
    endloop
  endfacet
  facet normal 0 0 1
    outer loop
      vertex -2.00563 0.802339 3.6
      vertex -3.125 0 3.6
      vertex -1.9 0 3.6
    endloop
  endfacet
  facet normal 0 0 1
    outer loop
      vertex -2.00563 -0.802339 3.6
      vertex -3.3762 -0.9375 3.6
      vertex -2.31532 -1.55 3.6
    endloop
  endfacet
  facet normal 0 0 1
    outer loop
      vertex -2.31532 -1.55 3.6
      vertex -4.0625 -1.6238 3.6
      vertex -2.80797 -2.19203 3.6
    endloop
  endfacet
  facet normal 0 0 1
    outer loop
      vertex -2.80797 -2.19203 3.6
      vertex -5 -1.875 3.6
      vertex -3.45 -2.68468 3.6
    endloop
  endfacet
  facet normal 0 0 1
    outer loop
      vertex -5 -1.875 3.6
      vertex -5.9375 -1.6238 3.6
      vertex -3.45 -2.68468 3.6
    endloop
  endfacet
  facet normal 0 0 1
    outer loop
      vertex -5.9375 -1.6238 3.6
      vertex -6.6238 -0.9375 3.6
      vertex -7.99437 -0.802339 3.6
    endloop
  endfacet
  facet normal 0 0 1
    outer loop
      vertex -3.3762 0.9375 3.6
      vertex -3.125 0 3.6
      vertex -2.00563 0.802339 3.6
    endloop
  endfacet
  facet normal 0 0 1
    outer loop
      vertex -3.125 0 3.6
      vertex -3.3762 -0.9375 3.6
      vertex -2.00563 -0.802339 3.6
    endloop
  endfacet
  facet normal 0 0 1
    outer loop
      vertex -3.125 0 3.6
      vertex -2.00563 -0.802339 3.6
      vertex -1.9 0 3.6
    endloop
  endfacet
  facet normal 0 0 1
    outer loop
      vertex -6.6238 -0.9375 3.6
      vertex -6.875 0 3.6
      vertex -7.99437 -0.802339 3.6
    endloop
  endfacet
  facet normal 0 0 1
    outer loop
      vertex 2.00563 -0.802339 3.6
      vertex 2.31532 -1.55 3.6
      vertex 2.80797 -2.19203 3.6
    endloop
  endfacet
  facet normal 0 0 1
    outer loop
      vertex 4.19766 -2.99437 3.6
      vertex 2.00563 -0.802339 3.6
      vertex 3.45 -2.68468 3.6
    endloop
  endfacet
  facet normal 0 0 1
    outer loop
      vertex 3.45 -2.68468 3.6
      vertex 2.00563 -0.802339 3.6
      vertex 2.80797 -2.19203 3.6
    endloop
  endfacet
  facet normal 0 0 1
    outer loop
      vertex 5 -3.1 3.6
      vertex 2.00563 -0.802339 3.6
      vertex 4.19766 -2.99437 3.6
    endloop
  endfacet
  facet normal 0 0 1
    outer loop
      vertex 5.80234 -2.99437 3.6
      vertex 2.00563 -0.802339 3.6
      vertex 5 -3.1 3.6
    endloop
  endfacet
  facet normal 0 0 1
    outer loop
      vertex 6.55 -2.68468 3.6
      vertex 2.00563 -0.802339 3.6
      vertex 5.80234 -2.99437 3.6
    endloop
  endfacet
  facet normal 0 0 1
    outer loop
      vertex 4.0625 -1.6238 3.6
      vertex 2.00563 -0.802339 3.6
      vertex 6.55 -2.68468 3.6
    endloop
  endfacet
  facet normal 0 0 1
    outer loop
      vertex 5.9375 -1.6238 3.6
      vertex 5 -1.875 3.6
      vertex 7.19203 -2.19203 3.6
    endloop
  endfacet
  facet normal 0 0 1
    outer loop
      vertex 3.125 0 3.6
      vertex 3.3762 0.9375 3.6
      vertex 2.00563 -0.802339 3.6
    endloop
  endfacet
  facet normal 0 0 1
    outer loop
      vertex 5.9375 1.6238 3.6
      vertex 6.6238 0.9375 3.6
      vertex 7.68468 1.55 3.6
    endloop
  endfacet
  facet normal 0 0 1
    outer loop
      vertex 5 1.875 3.6
      vertex 5.9375 1.6238 3.6
      vertex 6.55 2.68468 3.6
    endloop
  endfacet
  facet normal 0 0 1
    outer loop
      vertex 4.19766 2.99437 3.6
      vertex 2.00563 -0.802339 3.6
      vertex 5 3.1 3.6
    endloop
  endfacet
  facet normal 0 0 1
    outer loop
      vertex 3.45 2.68468 3.6
      vertex 2.00563 -0.802339 3.6
      vertex 4.19766 2.99437 3.6
    endloop
  endfacet
  facet normal 0 0 1
    outer loop
      vertex 2.80797 2.19203 3.6
      vertex 2.00563 -0.802339 3.6
      vertex 3.45 2.68468 3.6
    endloop
  endfacet
  facet normal 0 0 1
    outer loop
      vertex 2.31532 1.55 3.6
      vertex 2.00563 -0.802339 3.6
      vertex 2.80797 2.19203 3.6
    endloop
  endfacet
  facet normal 0 0 1
    outer loop
      vertex 2.00563 0.802339 3.6
      vertex 2.00563 -0.802339 3.6
      vertex 2.31532 1.55 3.6
    endloop
  endfacet
  facet normal 0 0 1
    outer loop
      vertex 1.9 0 3.6
      vertex 2.00563 -0.802339 3.6
      vertex 2.00563 0.802339 3.6
    endloop
  endfacet
  facet normal 0 0 1
    outer loop
      vertex 6.6238 -0.9375 3.6
      vertex 5.9375 -1.6238 3.6
      vertex 7.68468 -1.55 3.6
    endloop
  endfacet
  facet normal 0 0 1
    outer loop
      vertex 5 3.1 3.6
      vertex 2.00563 -0.802339 3.6
      vertex 3.3762 0.9375 3.6
    endloop
  endfacet
  facet normal 0 0 1
    outer loop
      vertex 5 3.1 3.6
      vertex 4.0625 1.6238 3.6
      vertex 5.80234 2.99437 3.6
    endloop
  endfacet
  facet normal 0 0 1
    outer loop
      vertex 5 3.1 3.6
      vertex 3.3762 0.9375 3.6
      vertex 4.0625 1.6238 3.6
    endloop
  endfacet
  facet normal 0 0 1
    outer loop
      vertex 5.80234 2.99437 3.6
      vertex 5 1.875 3.6
      vertex 6.55 2.68468 3.6
    endloop
  endfacet
  facet normal 0 0 1
    outer loop
      vertex 4.0625 1.6238 3.6
      vertex 5 1.875 3.6
      vertex 5.80234 2.99437 3.6
    endloop
  endfacet
  facet normal 0 0 1
    outer loop
      vertex 6.55 2.68468 3.6
      vertex 5.9375 1.6238 3.6
      vertex 7.19203 2.19203 3.6
    endloop
  endfacet
  facet normal 0 0 1
    outer loop
      vertex 7.68468 1.55 3.6
      vertex 6.6238 0.9375 3.6
      vertex 7.99437 0.802339 3.6
    endloop
  endfacet
  facet normal 0 0 1
    outer loop
      vertex 5.9375 1.6238 3.6
      vertex 7.68468 1.55 3.6
      vertex 7.19203 2.19203 3.6
    endloop
  endfacet
  facet normal 0 0 1
    outer loop
      vertex 7.99437 0.802339 3.6
      vertex 6.875 0 3.6
      vertex 8.1 0 3.6
    endloop
  endfacet
  facet normal 0 0 1
    outer loop
      vertex 7.99437 -0.802339 3.6
      vertex 6.6238 -0.9375 3.6
      vertex 7.68468 -1.55 3.6
    endloop
  endfacet
  facet normal 0 0 1
    outer loop
      vertex 7.68468 -1.55 3.6
      vertex 5.9375 -1.6238 3.6
      vertex 7.19203 -2.19203 3.6
    endloop
  endfacet
  facet normal 0 0 1
    outer loop
      vertex 7.19203 -2.19203 3.6
      vertex 5 -1.875 3.6
      vertex 6.55 -2.68468 3.6
    endloop
  endfacet
  facet normal 0 0 1
    outer loop
      vertex 5 -1.875 3.6
      vertex 4.0625 -1.6238 3.6
      vertex 6.55 -2.68468 3.6
    endloop
  endfacet
  facet normal 0 0 1
    outer loop
      vertex 4.0625 -1.6238 3.6
      vertex 3.3762 -0.9375 3.6
      vertex 2.00563 -0.802339 3.6
    endloop
  endfacet
  facet normal 0 0 1
    outer loop
      vertex 6.6238 0.9375 3.6
      vertex 6.875 0 3.6
      vertex 7.99437 0.802339 3.6
    endloop
  endfacet
  facet normal 0 0 1
    outer loop
      vertex 6.875 0 3.6
      vertex 6.6238 -0.9375 3.6
      vertex 7.99437 -0.802339 3.6
    endloop
  endfacet
  facet normal 0 0 1
    outer loop
      vertex 6.875 0 3.6
      vertex 7.99437 -0.802339 3.6
      vertex 8.1 0 3.6
    endloop
  endfacet
  facet normal 0 0 1
    outer loop
      vertex 3.3762 -0.9375 3.6
      vertex 3.125 0 3.6
      vertex 2.00563 -0.802339 3.6
    endloop
  endfacet
  facet normal -0.793353 -0.608762 0
    outer loop
      vertex 7.68468 1.55 10.3789
      vertex 7.19203 2.19203 9.88625
      vertex 7.68468 1.55 3.6
    endloop
  endfacet
  facet normal -0.793353 -0.608762 0
    outer loop
      vertex 7.68468 1.55 3.6
      vertex 7.19203 2.19203 9.88625
      vertex 7.19203 2.19203 3.6
    endloop
  endfacet
  facet normal -0.608762 -0.793353 0
    outer loop
      vertex 7.19203 2.19203 3.6
      vertex 7.19203 2.19203 9.88625
      vertex 6.55 2.68468 9.24421
    endloop
  endfacet
  facet normal -0.608762 -0.793353 0
    outer loop
      vertex 6.55 2.68468 3.6
      vertex 7.19203 2.19203 3.6
      vertex 6.55 2.68468 9.24421
    endloop
  endfacet
  facet normal -0.382683 -0.92388 0
    outer loop
      vertex 6.55 2.68468 3.6
      vertex 6.55 2.68468 9.24421
      vertex 5.80234 2.99437 8.49655
    endloop
  endfacet
  facet normal -0.382683 -0.92388 0
    outer loop
      vertex 5.80234 2.99437 3.6
      vertex 6.55 2.68468 3.6
      vertex 5.80234 2.99437 8.49655
    endloop
  endfacet
  facet normal -0.130526 -0.991445 0
    outer loop
      vertex 5.80234 2.99437 3.6
      vertex 5.80234 2.99437 8.49655
      vertex 5 3.1 7.69421
    endloop
  endfacet
  facet normal -0.130526 -0.991445 0
    outer loop
      vertex 5 3.1 3.6
      vertex 5.80234 2.99437 3.6
      vertex 5 3.1 7.69421
    endloop
  endfacet
  facet normal 0.130526 -0.991445 0
    outer loop
      vertex 5 3.1 3.6
      vertex 5 3.1 7.69421
      vertex 4.19766 2.99437 6.89188
    endloop
  endfacet
  facet normal 0.130526 -0.991445 0
    outer loop
      vertex 4.19766 2.99437 3.6
      vertex 5 3.1 3.6
      vertex 4.19766 2.99437 6.89188
    endloop
  endfacet
  facet normal 0.382683 -0.92388 0
    outer loop
      vertex 4.19766 2.99437 3.6
      vertex 4.19766 2.99437 6.89188
      vertex 3.45 2.68468 6.14421
    endloop
  endfacet
  facet normal 0.382683 -0.92388 0
    outer loop
      vertex 3.45 2.68468 3.6
      vertex 4.19766 2.99437 3.6
      vertex 3.45 2.68468 6.14421
    endloop
  endfacet
  facet normal -0.382683 -0.92388 0
    outer loop
      vertex -3.45 2.68468 3.6
      vertex -3.45 2.68468 6.14421
      vertex -4.19766 2.99437 6.89188
    endloop
  endfacet
  facet normal -0.382683 -0.92388 0
    outer loop
      vertex -4.19766 2.99437 3.6
      vertex -3.45 2.68468 3.6
      vertex -4.19766 2.99437 6.89188
    endloop
  endfacet
  facet normal -0.130526 -0.991445 0
    outer loop
      vertex -4.19766 2.99437 3.6
      vertex -4.19766 2.99437 6.89188
      vertex -5 3.1 7.69421
    endloop
  endfacet
  facet normal -0.130526 -0.991445 0
    outer loop
      vertex -5 3.1 3.6
      vertex -4.19766 2.99437 3.6
      vertex -5 3.1 7.69421
    endloop
  endfacet
  facet normal 0.130526 -0.991445 0
    outer loop
      vertex -5 3.1 3.6
      vertex -5 3.1 7.69421
      vertex -5.80234 2.99437 8.49655
    endloop
  endfacet
  facet normal 0.130526 -0.991445 0
    outer loop
      vertex -5.80234 2.99437 3.6
      vertex -5 3.1 3.6
      vertex -5.80234 2.99437 8.49655
    endloop
  endfacet
  facet normal 0.382683 -0.92388 0
    outer loop
      vertex -5.80234 2.99437 3.6
      vertex -5.80234 2.99437 8.49655
      vertex -6.55 2.68468 9.24421
    endloop
  endfacet
  facet normal 0.382683 -0.92388 0
    outer loop
      vertex -6.55 2.68468 3.6
      vertex -5.80234 2.99437 3.6
      vertex -6.55 2.68468 9.24421
    endloop
  endfacet
  facet normal 0.608762 -0.793353 0
    outer loop
      vertex -6.55 2.68468 3.6
      vertex -6.55 2.68468 9.24421
      vertex -7.19203 2.19203 9.88625
    endloop
  endfacet
  facet normal 0.608762 -0.793353 0
    outer loop
      vertex -7.19203 2.19203 3.6
      vertex -6.55 2.68468 3.6
      vertex -7.19203 2.19203 9.88625
    endloop
  endfacet
  facet normal 0.793353 -0.608762 0
    outer loop
      vertex -7.19203 2.19203 3.6
      vertex -7.19203 2.19203 9.88625
      vertex -7.68468 1.55 10.3789
    endloop
  endfacet
  facet normal 0.793353 -0.608762 0
    outer loop
      vertex -7.68468 1.55 3.6
      vertex -7.19203 2.19203 3.6
      vertex -7.68468 1.55 10.3789
    endloop
  endfacet
endsolid OpenSCAD_Model
